<svg width="20" height="20" viewBox="0 0 20 20" fill="none" xmlns="http://www.w3.org/2000/svg">
<path d="M15 10C14.5416 10 14.1666 10.375 14.1666 10.8333V12.5H12.5C12.0416 12.5 11.6666 12.875 11.6666 13.3333C11.6666 13.7917 12.0416 14.1667 12.5 14.1667H15C15.4583 14.1667 15.8333 13.7917 15.8333 13.3333V10.8333C15.8333 10.375 15.4583 10 15 10ZM5.83331 7.5H7.49998C7.95831 7.5 8.33331 7.125 8.33331 6.66667C8.33331 6.20833 7.95831 5.83333 7.49998 5.83333H4.99998C4.54165 5.83333 4.16665 6.20833 4.16665 6.66667V9.16667C4.16665 9.625 4.54165 10 4.99998 10C5.45831 10 5.83331 9.625 5.83331 9.16667V7.5ZM17.5 2.5H2.49998C1.58331 2.5 0.833313 3.25 0.833313 4.16667V15.8333C0.833313 16.75 1.58331 17.5 2.49998 17.5H17.5C18.4166 17.5 19.1666 16.75 19.1666 15.8333V4.16667C19.1666 3.25 18.4166 2.5 17.5 2.5ZM16.6666 15.8417H3.33331C2.87498 15.8417 2.49998 15.4667 2.49998 15.0083V4.99167C2.49998 4.53333 2.87498 4.15833 3.33331 4.15833H16.6666C17.125 4.15833 17.5 4.53333 17.5 4.99167V15.0083C17.5 15.4667 17.125 15.8417 16.6666 15.8417Z" fill="#5E6296"/>
</svg>
