<svg width="20" height="20" viewBox="0 0 20 20" fill="none" xmlns="http://www.w3.org/2000/svg">
<path d="M17.5 2.5H2.49998C1.58331 2.5 0.833313 3.25 0.833313 4.16667V14.1667C0.833313 15.0833 1.58331 15.8333 2.49998 15.8333H6.66665V16.6667C6.66665 17.125 7.04165 17.5 7.49998 17.5H12.5C12.9583 17.5 13.3333 17.125 13.3333 16.6667V15.8333H17.5C18.4166 15.8333 19.1583 15.0833 19.1583 14.1667L19.1666 4.16667C19.1666 3.24167 18.4166 2.5 17.5 2.5ZM16.6666 14.1667H3.33331C2.87498 14.1667 2.49998 13.7917 2.49998 13.3333V5C2.49998 4.54167 2.87498 4.16667 3.33331 4.16667H16.6666C17.125 4.16667 17.5 4.54167 17.5 5V13.3333C17.5 13.7917 17.125 14.1667 16.6666 14.1667Z" fill="#5E6296"/>
</svg>
